<?xml version="1.0" encoding="UTF-8"?>
<svg xmlns="http://www.w3.org/2000/svg" viewBox="0 0 192 192"><path d="M67.7 74.5c.2-.8.3-1.7.3-2.5 0-6.6-5.4-12-12-12s-12 5.4-12 12 5.3 11.9 11.8 12c-1.9 2.2-3.5 4.7-4.8 7.4-8.6-2.2-15-10.1-15-19.4 0-11 9-20 20-20 10.9 0 19.8 8.7 20 19.6-2.9.6-5.7 1.6-8.3 2.9zM52 32h8v12h-8zM16 68h12v8H16zM73.14 49.202l7.99-7.99 5.657 5.657-7.99 7.99zM25.14 97.202l7.99-7.99 5.657 5.656-7.99 7.99zM25.14 46.798l5.657-5.657 7.99 7.99-5.656 5.657zM148 145.1V128h-8v17.1c-2.4 1.4-4 4-4 6.9 0 4.4 3.6 8 8 8s8-3.6 8-8c0-3-1.6-5.5-4-6.9z" fill="rgba(0,86,145,1)"/><path d="M104.8 152H61.1c-11.6 0-21.1-9.4-21.1-21.1 0-11 8.6-20.2 19.6-21l3.5-.2.2-3.5c.7-11 10-19.6 21-19.6 3 0 5.9.6 8.6 1.8l3.2 1.4 1.8-3c5.5-9.1 15.1-14.6 25.7-14.6 16.5 0 30 13.5 30 30 0 .9-.1 1.9-.1 2.8 2.7.7 5.3 1.6 7.7 2.8.3-1.9.4-3.8.4-5.6 0-21-17-38-38-38-12.3 0-23.6 5.8-30.7 15.6-2.8-.9-5.7-1.3-8.6-1.3-14.1 0-26.1 10.2-28.6 23.8-13.5 2.6-23.7 14.6-23.7 28.6 0 16 13 29.1 29.1 29.1h46.3c-1.2-2.5-2-5.2-2.6-8z" fill="rgba(0,86,145,1)"/><g fill="rgba(0,86,145,1)"><path d="M144 176c-17.6 0-32-14.4-32-32s14.4-32 32-32 32 14.4 32 32-14.4 32-32 32zm0-56c-13.2 0-24 10.8-24 24s10.8 24 24 24 24-10.8 24-24-10.8-24-24-24z" fill="rgba(0,86,145,1)"/></g></svg>