<svg viewBox="0 0 113.392 113.392" xmlns='http://www.w3.org/2000/svg'>
	<path
			fill="#2F4252"
			d="M 0,93.462 V 19.926 C 0,8.921 8.921,0 19.926,0 h 73.536 c 11,0 19.93,8.921 19.93,19.926 v 73.536 c 0,11 -8.93,19.93 -19.93,19.93 H 19.926 C 8.921,113.392 0,104.462 0,93.462 Z M 113.392,0"
	></path>
	<path
		stroke="#00AE41" stroke-width="9.96280003"  stroke-linecap="round"
		d="M 14.174,42.521 42.521,14.174"
	></path>

	<path
		stroke="#FFD100" stroke-width="9.96280003"  stroke-linecap="round"
		d="M 14.174,70.867 70.867,14.174"
	></path>
	<path
		stroke="#FF8F12" stroke-width="9.96280003"  stroke-linecap="round"
		d="M 14.174,99.212 99.212,14.174"
	></path>
	<path
		stroke="#EF483D" stroke-width="9.96280003"  stroke-linecap="round"
		d="M 42.521,99.212 99.212,42.521"
	></path>
	<path
		fill="white"
		d="m 103.462,92.132 c 0,-6.267 -5.07,-11.343 -11.33,-11.343 -6.267,0 -11.343,5.076 -11.343,11.343 0,6.26 5.076,11.33 11.343,11.33 6.26,0 11.33,-5.07 11.33,-11.33 z m -11.33,0"
	></path>
</svg>