<?xml version="1.0" encoding="UTF-8"?>
<!-- By Athom: https://homey.app -->
<svg width="48px" height="48px" viewBox="0 0 48 48" version="1.1" xmlns="http://www.w3.org/2000/svg"
	xmlns:xlink="http://www.w3.org/1999/xlink">
	<title>icon / capabilities / sensor / measure_power</title>
	<g id="Capabilities" stroke="none" stroke-width="1" fill="none" fill-rule="evenodd">
		<g id="icon-/-capabilities-/-sensor-/-measure_power" fill="black">
			<path
				d="M35.9335758,19.1386326 C35.6393711,18.6494454 35.1225251,18.3551376 34.5500188,18.3551376 L25.8908601,18.3551376 L27.9145111,0.927347442 C27.9423412,0.688719552 27.8668022,0.446114531 27.7037969,0.267143614 C27.5447674,0.0881726967 27.3141745,-0.0152327221 27.0716545,-0.0152327221 L27.0358728,-0.0152327221 C26.7217895,-0.0152327221 26.4395121,0.155783932 26.2924097,0.430206005 L11.9558964,27.2360723 C11.6855462,27.741168 11.7014491,28.3337606 11.9956538,28.8269249 C12.2898584,29.316112 12.8067045,29.6104198 13.3792108,29.6104198 L22.0383694,29.6143969 L20.0147185,47.0421871 C19.9868883,47.280815 20.0624274,47.52342 20.2214569,47.7023909 C20.3804865,47.8813619 20.6110793,47.9847673 20.8535993,47.9847673 L20.889381,47.9847673 C21.2034643,47.9847673 21.4857418,47.8137506 21.6328441,47.5393286 L35.9693574,20.7334623 C36.2397077,20.2243895 36.2277804,19.6317969 35.9335758,19.1386326 Z"
				id="Path"></path>
		</g>
	</g>
</svg>