<?xml version="1.0" encoding="iso-8859-1"?>
<!-- Generator: Adobe Illustrator 17.1.0, SVG Export Plug-In . SVG Version: 6.00 Build 0)  -->
<!DOCTYPE svg PUBLIC "-//W3C//DTD SVG 1.1//EN" "http://www.w3.org/Graphics/SVG/1.1/DTD/svg11.dtd">
<svg version="1.1" id="Capa_1" xmlns="http://www.w3.org/2000/svg" xmlns:xlink="http://www.w3.org/1999/xlink" x="0px" y="0px"
	 viewBox="0 0 323.33 323.33" style="enable-background:new 0 0 323.33 323.33;" xml:space="preserve">
<g>
	<path d="M143.665,219.841h61.3c4.143,0,7.5-3.357,7.5-7.5v-92.197c0-4.143-3.357-7.5-7.5-7.5h-92.197c-4.143,0-7.5,3.357-7.5,7.5
		v92.197c0,4.143,3.357,7.5,7.5,7.5s7.5-3.357,7.5-7.5v-84.697h77.197v77.197h-53.8c-4.143,0-7.5,3.357-7.5,7.5
		S139.522,219.841,143.665,219.841z"/>
	<path d="M158.865,148.745c1.979,0,3.909-0.8,5.3-2.2c1.399-1.39,2.2-3.33,2.2-5.3c0-1.971-0.801-3.9-2.2-5.3
		c-1.391-1.4-3.33-2.2-5.3-2.2c-1.971,0-3.91,0.8-5.301,2.2c-1.399,1.39-2.199,3.329-2.199,5.3c0,1.979,0.8,3.91,2.199,5.3
		C154.955,147.945,156.895,148.745,158.865,148.745z"/>
	<path d="M153.564,170.865c1.391,1.399,3.33,2.199,5.301,2.199c1.979,0,3.909-0.8,5.3-2.199c1.399-1.391,2.2-3.33,2.2-5.301
		c0-1.97-0.801-3.899-2.2-5.3c-1.391-1.399-3.32-2.2-5.3-2.2c-1.971,0-3.91,0.801-5.301,2.2c-1.399,1.391-2.199,3.33-2.199,5.3
		C151.365,167.545,152.165,169.475,153.564,170.865z"/>
	<path d="M153.564,195.185c1.391,1.4,3.33,2.2,5.301,2.2c1.979,0,3.909-0.8,5.3-2.2c1.399-1.39,2.2-3.33,2.2-5.3
		s-0.801-3.91-2.2-5.3c-1.391-1.4-3.32-2.2-5.3-2.2c-1.971,0-3.91,0.8-5.301,2.2c-1.399,1.39-2.199,3.33-2.199,5.3
		C151.365,191.865,152.165,193.795,153.564,195.185z"/>
	<path d="M129.245,195.185c1.399,1.4,3.33,2.2,5.3,2.2c1.979,0,3.91-0.8,5.31-2.2c1.391-1.39,2.19-3.319,2.19-5.3
		c0-1.979-0.8-3.91-2.19-5.3c-1.399-1.4-3.33-2.2-5.31-2.2c-1.97,0-3.91,0.8-5.3,2.2c-1.4,1.39-2.2,3.33-2.2,5.3
		S127.845,193.795,129.245,195.185z"/>
	<path d="M177.885,170.865c1.39,1.399,3.33,2.199,5.3,2.199c1.98,0,3.91-0.8,5.3-2.199c1.4-1.391,2.2-3.33,2.2-5.301
		c0-1.97-0.8-3.899-2.2-5.3c-1.39-1.399-3.319-2.2-5.3-2.2c-1.979,0-3.91,0.801-5.3,2.2c-1.4,1.391-2.2,3.32-2.2,5.3
		C175.685,167.545,176.484,169.475,177.885,170.865z"/>
	<path d="M177.885,195.185c1.39,1.4,3.33,2.2,5.3,2.2c1.98,0,3.91-0.8,5.3-2.2c1.4-1.39,2.2-3.33,2.2-5.3s-0.8-3.91-2.2-5.3
		c-1.39-1.4-3.319-2.2-5.3-2.2c-1.979,0-3.91,0.8-5.3,2.2c-1.4,1.39-2.2,3.32-2.2,5.3
		C175.685,191.865,176.484,193.795,177.885,195.185z"/>
	<path d="M183.185,148.745c1.971,0,3.91-0.8,5.3-2.19c1.4-1.399,2.2-3.34,2.2-5.31c0-1.971-0.8-3.9-2.2-5.3
		c-1.39-1.4-3.319-2.2-5.3-2.2c-1.979,0-3.91,0.8-5.3,2.2c-1.4,1.39-2.2,3.329-2.2,5.3c0,1.979,0.8,3.91,2.2,5.31
		C179.274,147.945,181.215,148.745,183.185,148.745z"/>
	<path d="M129.245,170.865c1.399,1.399,3.33,2.199,5.3,2.199c1.979,0,3.91-0.8,5.31-2.199c1.391-1.391,2.19-3.32,2.19-5.301
		c0-1.97-0.8-3.909-2.19-5.3c-1.399-1.399-3.33-2.2-5.31-2.2c-1.97,0-3.91,0.801-5.3,2.2c-1.4,1.391-2.2,3.33-2.2,5.3
		C127.045,167.535,127.845,169.475,129.245,170.865z"/>
	<path d="M134.545,148.745c1.979,0,3.91-0.8,5.31-2.19c1.391-1.399,2.19-3.33,2.19-5.31c0-1.98-0.8-3.91-2.19-5.3
		c-1.399-1.4-3.33-2.2-5.31-2.2c-1.97,0-3.91,0.8-5.3,2.2c-1.4,1.39-2.2,3.329-2.2,5.3c0,1.979,0.8,3.91,2.2,5.31
		C130.645,147.945,132.575,148.745,134.545,148.745z"/>
	<path d="M23.399,186.478C10.497,186.478,0,196.975,0,209.877s10.497,23.398,23.399,23.398s23.398-10.496,23.398-23.398
		S36.302,186.478,23.399,186.478z M23.399,218.275c-4.632,0-8.399-3.768-8.399-8.398c0-4.632,3.768-8.399,8.399-8.399
		c4.631,0,8.398,3.768,8.398,8.399C31.798,214.508,28.03,218.275,23.399,218.275z"/>
	<path d="M299.931,150.588c-12.902,0-23.398,10.497-23.398,23.399s10.496,23.398,23.398,23.398s23.399-10.496,23.399-23.398
		S312.833,150.588,299.931,150.588z M299.931,182.386c-4.631,0-8.398-3.768-8.398-8.398c0-4.632,3.768-8.399,8.398-8.399
		c4.632,0,8.399,3.768,8.399,8.399C308.33,178.618,304.563,182.386,299.931,182.386z"/>
	<path d="M276.953,138.616l-12.804-12.805c-1.407-1.407-3.314-2.197-5.304-2.197h-20.299v-15.545
		c0-11.859-9.648-21.507-21.508-21.507h-16.896V50.961c9.233-3.134,15.898-11.88,15.898-22.159
		c0-12.902-10.496-23.398-23.398-23.398s-23.399,10.496-23.399,23.398c0,10.279,6.666,19.025,15.899,22.159v35.601h-4.812
		c-4.143,0-7.5,3.357-7.5,7.5s3.357,7.5,7.5,7.5h36.707c3.589,0,6.508,2.919,6.508,6.507v116.345c0,3.589-2.919,6.508-6.508,6.508
		H100.694c-3.589,0-6.508-2.919-6.508-6.508V108.069c0-3.588,2.919-6.507,6.508-6.507h48.971c4.143,0,7.5-3.357,7.5-7.5
		s-3.357-7.5-7.5-7.5h-10.319V63.814c0-1.989-0.79-3.896-2.197-5.304l-26.969-26.969c0.105-0.899,0.166-1.813,0.166-2.74
		c0-12.902-10.496-23.398-23.398-23.398S63.548,15.899,63.548,28.802s10.496,23.399,23.398,23.399c6.269,0,11.964-2.482,16.169-6.51
		l21.23,21.229v19.642h-23.651c-11.859,0-21.508,9.647-21.508,21.507v96.771H61.665c-4.143,0-7.5,3.357-7.5,7.5s3.357,7.5,7.5,7.5
		h17.521v4.573c0,11.859,9.648,21.508,21.508,21.508h62.156v20.141c0,1.989,0.79,3.896,2.196,5.304l13.087,13.087
		c-1.463,3.053-2.283,6.47-2.283,10.075c0,12.902,10.496,23.398,23.398,23.398s23.399-10.496,23.399-23.398
		s-10.497-23.399-23.399-23.399c-3.834,0-7.453,0.933-10.65,2.575l-10.749-10.748v-17.034h39.188
		c11.859,0,21.508-9.648,21.508-21.508v-85.8h17.192l10.606,10.607c1.465,1.465,3.384,2.197,5.304,2.197
		c1.919,0,3.839-0.732,5.303-2.196C279.882,146.294,279.882,141.545,276.953,138.616z M192.644,20.403
		c4.631,0,8.398,3.768,8.398,8.398c0,4.632-3.768,8.399-8.398,8.399c-4.632,0-8.399-3.768-8.399-8.399
		C184.244,24.171,188.012,20.403,192.644,20.403z M86.946,37.201c-4.631,0-8.398-3.768-8.398-8.399c0-4.631,3.768-8.398,8.398-8.398
		s8.398,3.768,8.398,8.398C95.345,33.434,91.577,37.201,86.946,37.201z M207.648,294.528c0,4.631-3.768,8.398-8.399,8.398
		c-4.631,0-8.398-3.768-8.398-8.398c0-4.632,3.768-8.399,8.398-8.399C203.881,286.129,207.648,289.896,207.648,294.528z"/>
</g>
<g>
</g>
<g>
</g>
<g>
</g>
<g>
</g>
<g>
</g>
<g>
</g>
<g>
</g>
<g>
</g>
<g>
</g>
<g>
</g>
<g>
</g>
<g>
</g>
<g>
</g>
<g>
</g>
<g>
</g>
</svg>
