<?xml version="1.0" encoding="UTF-8"?>
<svg width="64px" height="64px" viewBox="0 0 64 64" version="1.1" xmlns="http://www.w3.org/2000/svg" xmlns:xlink="http://www.w3.org/1999/xlink">
    <!-- Generator: Sketch 41.2 (35397) - http://www.bohemiancoding.com/sketch -->
    <title>mysensors_lastseen</title>
    <desc>Created with Sketch.</desc>
    <defs/>
    <g id="Page-1" stroke="none" stroke-width="1" fill="none" fill-rule="evenodd">
        <g id="mysensors_lastseen" fill="#000000">
            <g id="Group">
                <path d="M41.028,35.5074783 L38.124,22.6170435 L32.7773333,47.4128696 C32.6413333,48.0431304 32.108,48.493913 31.4853333,48.4994783 L31.4773333,48.4994783 C30.86,48.4994783 30.324,48.0570435 30.18,47.4309565 L24.06,20.8347826 L19.664,36.8765217 C19.5,37.4747826 18.976,37.8852174 18.3826667,37.8852174 L8.13333333,37.8852174 C10.6986667,40.8987826 13.712,44.0612174 16.972,47.4782609 C21.2013333,51.9053913 25.996,56.9266087 30.464,62.3944348 L31.48,63.6368696 L32.4933333,62.3944348 C36.288,57.7502609 40.5946667,53.2452174 44.7613333,48.8862609 C48.9013333,44.5523478 52.7946667,40.4702609 55.9146667,36.5815652 L42.328,36.5815652 C41.708,36.5815652 41.172,36.1363478 41.028,35.5074783 Z" id="Shape"/>
                <path d="M22.8906667,14.9829565 C23.0573333,14.3749565 23.552,13.933913 24.2026667,13.9742609 C24.8066667,13.9881739 25.328,14.4264348 25.4706667,15.0413913 L31.4373333,40.9655652 L36.7973333,16.1057391 C36.9333333,15.474087 37.4693333,15.0233043 38.092,15.0205217 L38.0973333,15.0205217 C38.7173333,15.0205217 39.2533333,15.4643478 39.3973333,16.0932174 L43.384,33.8003478 L58.024,33.8003478 C61.0506667,29.5582609 62.956,25.5401739 62.956,21.6709565 C62.956,9.92417391 55.0546667,0.365913043 45.344,0.365913043 C39.844,0.365913043 34.7973333,3.3906087 31.4773333,8.56765217 C28.1573333,3.3906087 23.108,0.365913043 17.6053333,0.365913043 C7.89866667,0.364521739 0,9.9213913 0,21.6695652 C0,26.0786087 2.26533333,30.4333913 5.86666667,35.104 L17.38,35.104 L22.8906667,14.9829565 Z" id="Shape"/>
                <path d="M1.33333333,35.1026087 C0.596,35.1026087 0,35.7245217 0,36.493913 C0,37.2633043 0.596,37.8852174 1.33333333,37.8852174 L8.13333333,37.8852174 C7.33066667,36.9446957 6.57333333,36.0153043 5.868,35.1026087 L1.33333333,35.1026087 Z" id="Shape"/>
                <path d="M62.6666667,33.7989565 L58.024,33.7989565 C57.3706667,34.7144348 56.6693333,35.6410435 55.9146667,36.5815652 L62.6666667,36.5815652 C63.404,36.5815652 64,35.9568696 64,35.1902609 C64,34.4208696 63.404,33.7989565 62.6666667,33.7989565 Z" id="Shape"/>
            </g>
        </g>
    </g>
</svg>