<?xml version="1.0" encoding="iso-8859-1"?>
<!-- Generator: Adobe Illustrator 18.0.0, SVG Export Plug-In . SVG Version: 6.00 Build 0)  -->
<!DOCTYPE svg PUBLIC "-//W3C//DTD SVG 1.1//EN" "http://www.w3.org/Graphics/SVG/1.1/DTD/svg11.dtd">
<svg version="1.1" id="Capa_1" xmlns="http://www.w3.org/2000/svg" xmlns:xlink="http://www.w3.org/1999/xlink" x="0px" y="0px"
	 viewBox="0 0 257.309 257.309" style="enable-background:new 0 0 257.309 257.309;" xml:space="preserve">
<path d="M0,107.154h10.761c4.419,0,8,3.582,8,8s-3.581,8-8,8H0v16.502h10.761c4.419,0,8,3.582,8,8c0,4.418-3.581,8-8,8H0v11.998
	h37.463v-3.725c0-2.225,1.805-4.025,4.024-4.025c2.221,0,4.025,1.801,4.025,4.025v3.725h37.283v-3.725
	c0-2.225,1.805-4.025,4.025-4.025c2.22,0,4.024,1.801,4.024,4.025v3.725h34.393v-8h6.832v8h34.393v-3.725
	c0-2.225,1.805-4.025,4.024-4.025c2.221,0,4.025,1.801,4.025,4.025v3.725h37.283v-3.725c0-2.225,1.805-4.025,4.025-4.025
	c2.22,0,4.024,1.801,4.024,4.025v3.725h37.463v-11.998h-10.761c-4.419,0-8-3.582-8-8c0-4.418,3.581-8,8-8h10.761v-16.502h-10.761
	c-4.419,0-8-3.582-8-8s3.581-8,8-8h10.761v-17.5H0V107.154z M203.987,104.654h17.334v40.667h-17.334V104.654z M173.987,104.654
	h17.334v40.667h-17.334V104.654z M143.987,104.654h17.334v40.667h-17.334V104.654z M95.987,104.654h17.334v40.667H95.987V104.654z
	 M65.987,104.654h17.334v40.667H65.987V104.654z M35.987,104.654h17.334v40.667H35.987V104.654z"/>
<g>
</g>
<g>
</g>
<g>
</g>
<g>
</g>
<g>
</g>
<g>
</g>
<g>
</g>
<g>
</g>
<g>
</g>
<g>
</g>
<g>
</g>
<g>
</g>
<g>
</g>
<g>
</g>
<g>
</g>
</svg>
