<?xml version="1.0" encoding="iso-8859-1"?>
<!-- Generator: Adobe Illustrator 18.0.0, SVG Export Plug-In . SVG Version: 6.00 Build 0)  -->
<!DOCTYPE svg PUBLIC "-//W3C//DTD SVG 1.1//EN" "http://www.w3.org/Graphics/SVG/1.1/DTD/svg11.dtd">
<svg version="1.1" id="Capa_1" xmlns="http://www.w3.org/2000/svg" xmlns:xlink="http://www.w3.org/1999/xlink" x="0px" y="0px"
	 viewBox="0 0 163.604 163.604" style="enable-background:new 0 0 163.604 163.604;" xml:space="preserve">
<g>
	<path d="M18.055,0c-4.971,0-9,4.029-9,9v145.604c0,4.971,4.029,9,9,9s9-4.029,9-9V9C27.055,4.029,23.026,0,18.055,0z"/>
	<path d="M60.553,55.118c-4.971,0-9,4.029-9,9v90.486c0,4.971,4.029,9,9,9s9-4.029,9-9V64.118
		C69.553,59.147,65.524,55.118,60.553,55.118z"/>
	<path d="M103.051,100.361c-4.971,0-9,4.029-9,9v45.243c0,4.971,4.029,9,9,9s9-4.029,9-9v-45.243
		C112.051,104.391,108.022,100.361,103.051,100.361z"/>
	<path d="M145.549,131.512c-4.971,0-9,4.029-9,9v14.092c0,4.971,4.029,9,9,9s9-4.029,9-9v-14.092
		C154.549,135.542,150.52,131.512,145.549,131.512z"/>
</g>
<g>
</g>
<g>
</g>
<g>
</g>
<g>
</g>
<g>
</g>
<g>
</g>
<g>
</g>
<g>
</g>
<g>
</g>
<g>
</g>
<g>
</g>
<g>
</g>
<g>
</g>
<g>
</g>
<g>
</g>
</svg>
